<svg xmlns="http://www.w3.org/2000/svg" enable-background="new 0 0 1080 1080" viewBox="0 0 1080 1080"><path fill="#2a94f4" d="M837.5 698.5s80.5-150-19.7-203S702.2 385 739 331.1s-201-162.7-215.3-18.8-116.1 74.5-197.5 16.3-120 38.5-38.2 113-155.8 182.1-64.4 267.9l613.9-11z" opacity=".07"/><path fill="#d3d3d3" d="M922.8 716.8H169.6c-3.9 0-7.1-3.2-7.1-7.1V700c0-3.9 3.2-7.1 7.1-7.1h753.2c3.9 0 7.1 3.2 7.1 7.1v9.7c.1 3.9-3.1 7.1-7.1 7.1z"/><path fill="#f2f2f2" d="m657.4 610.8-362.5 51.8V377.3l360.2 61.3z"/><path fill="#ffbe55" d="m655.4 459.6-360.5-47.5v-34.8l360.2 61.3z"/><path fill="#ffbe55" d="m397.7 487.3-102.8-5.7v-43.5l102.7 10.6z" opacity=".42"/><path fill="#ffbe55" d="m319.7 472.2-14.3-1v-20.3l14.3 1.3z"/><path fill="#ffbe55" d="m397.8 531.4-102.9-.1v-43.5l102.8 5z" opacity=".42"/><path fill="#ffbe55" d="m319.7 520.5-14.3-.1v-20.3l14.3.5z"/><path fill="#ffbe55" d="m397.9 575.5-103 5.5v-43.5l102.9-.6z" opacity=".42"/><path fill="#ffbe55" d="m319.7 568.9-14.3.6v-20.3l14.3-.3z"/><path fill="#ffbe55" d="m398.1 647.9-103.2 14.7v-43.5l103.1-9.8z" opacity=".42"/><path fill="#ffbe55" d="m319.8 648.3-14.4 1.9v-20.3l14.4-1.6z"/><path fill="#ffbe55" d="m336.3 604.2-35.4 3v-16.5l35.4-2.3z" opacity=".42"/><path fill="#ffbe55" d="m625.6 544.4-188.3 4.1-.3-79.2 187.9 15.3.7 59.8zm-185.4.4 182.4-3.1-.6-54.7-182-14 .2 71.8z"/><path fill="#ffbe55" d="M623.7 544.4 438 472.9l.9-3.4 185.7 72.3z"/><path fill="#ffbe55" d="m439.2 548.3-.9-3.3L623 484.5l.9 2.7zM529.1 569.6l-90.2 5-.1-12L529 559zM624.5 576.5l-185.6 14.2v-6L624.5 572zM624.6 585.2 439 602.1v-6l185.6-15.5zM624.7 593.8 439 613.5v-6l185.7-18.3z"/><path fill="#2a94f4" d="M753.9 475.6c-44.9 0-81.7-37-81.7-82.1 0-45.2 36.9-81.9 82.4-81.9 44.6 0 81.6 37.3 81.6 82.2-.1 45.1-37 81.8-82.3 81.8zm49.6-136.7c-1.1-1-2-1.7-2.9-2.4-10.5-8.4-22.2-14-35.6-15.8-13.6-1.8-26.9-.4-39.6 5-13 5.6-23.6 14.3-31.7 25.9-.2.3-.5.9-.3 1.1.1.3.7.4 1.1.4 5.1-.1 10.2-.2 15.2-.4 2.6-.1 5.1-.3 7.7-.2 1.7 0 2.7 1.1 2.8 2.6.1 1.4-.8 2.7-2.4 3-1.9.4-3.8.5-5.7.8-2.9.3-3 .2-2 3.2 8.3 24.9 16.7 49.7 25.1 74.6.1.4.4.8.8 1.4.3-.7.6-1.1.7-1.5l2.4-7.2c4.1-12.2 8.2-24.4 12.2-36.7.4-1.1.5-2.6.2-3.7-3.3-9.4-6.8-18.8-10.2-28.2-.4-1.2-1.1-1.8-2.4-1.9-2.2-.2-4.4-.4-6.6-.9-1.4-.3-2.1-1.4-2.1-2.8s.8-2.5 2.2-2.7c1.1-.2 2.2-.1 3.3-.1 9.9.6 19.8 1 29.7.2 2.3-.2 4.5-.3 6.8-.3 2.7 0 4.1 2.2 2.9 4.4-.6 1.1-1.8 1.4-2.9 1.6-1.9.2-3.7.4-5.6.6-1.9.2-2.1.5-1.5 2.3 3 8.8 5.9 17.6 8.9 26.4l16.2 48c.2.5.5 1 .7 1.4.5-.6.7-1 .9-1.5 3.6-12 7.2-23.9 10.7-35.9 2.1-7.1 2-14.2-.4-21.3-1.5-4.3-3.8-8.2-6.1-12.1-2-3.3-3.9-6.7-4.8-10.5-1.8-7.7 2.4-14.6 10.2-16.3.5 0 1.1-.2 2.1-.5zM755.8 401h-.4c-.3.6-.6 1.1-.8 1.7-1.1 3-2.1 6.1-3.1 9.1-5.8 16.7-11.5 33.4-17.3 50.1-.7 2.1-.5 2.7 1.5 3.1 3 .6 5.9 1.3 8.9 1.7 10.7 1.5 21.1.4 31.4-2.6 2.2-.7 2.4-1 1.6-3.2-6.2-16.9-12.3-33.8-18.5-50.7-1.1-3.2-2.2-6.2-3.3-9.2zm-34.6 58.5.3-.3c-.3-.9-.5-1.9-.9-2.8-7-19.1-14-38.2-20.9-57.3-4.1-11.2-8.2-22.4-12.2-33.7-.1-.3-.4-.6-.7-.9-.3.2-.6.4-.8.7-2.6 6.4-4.5 13.1-5.2 20-1.2 11.8.2 23.4 4.3 34.5 5.8 15.4 16 27.2 29.6 36.2 2.1 1.4 4.4 2.4 6.5 3.6zm70.4-2.9c2.8-.6 4.8-2 6.7-3.4 6.8-5.2 12.1-11.9 16.9-18.9 7.8-11.2 11.9-23.7 12.6-37.3.7-13-2.3-25.2-8-36.9-.1-.2-.3-.4-.6-.8-.1.7-.1 1-.1 1.4.9 9.4-.7 18.5-3.8 27.3-7.7 22.4-15.5 44.7-23.3 67.1-.1.3-.2.8-.4 1.5z"/><path fill="#dba17b" d="M679.4 667.5s3.4 9.9 4 11.5c.6 1.4 1.8 2.3 3 3.2.4.3.7.9 1.1 1.5.3.4.2 1 0 1.4-3.5 8.2-13 11-13.2 10.4-.3-1.2 1.2-3.3 3.2-4.4 2-1 3.3-3.2 3.5-5.4.2-1.8-.1-3.6-.9-5.3l-3.4-7.4 2.7-5.5zM665.3 678.9l-2.9 10.2c-.9 3.1-.6 6.5.7 9.4.8 1.6-.1 3.6-1.8 4.1-5.6 1.7-16.6 4.8-17 4.4-2.3-2.2 4.3-5.2 9.3-8.6 3.3-2.2 5.2-13.4 6-22l5 1.6c.3.2.6.5.7.9z"/><path fill="#0b4870" d="M654.5 701.5c-2.3.6-4.9.7-7.2.9-.3 0-.5.1-.7.3-2.3 1.6-3.5 3.2-2.3 4.4.5.5 13.3-3.3 18.3-4.8 1-.3 1.6-1.5 1.1-2.5l-.8-1.8c-2.7 1.5-5.5 2.7-8.4 3.5zM667.3 563.4c6 1.2 10.8 8.5 9.3 16.2-.9 4.5-5.9 20.4-11.3 32.8-2 4.8-1.6 10.4 1.5 14.6.5.7.9 1.4 1.3 2.1 1.7 3.6 8 25 11.5 39.1-.4 1.8-1.7 4.1-3.1 4.8-7-12.3-18.2-34.6-20-38.4-1-2.2-2.1-4.6-2.9-7-4.6-6.8-1.6-43.3-.2-50.5 1.5-7.7 7.9-14.8 13.9-13.7z"/><ellipse cx="668.1" cy="519.5" fill="#0b4870" rx="12.1" ry="9.4" transform="rotate(-86.843 668.063 519.508) scale(1.00002)"/><path fill="#0b4870" d="M670.2 520.9c.5-6.7 6.2-12 12.9-12 5.9 0 10.9 3.9 12.5 9.2.6 1.9 2.3 3.1 4.2 3.2.8 0 1.6.2 2.5.4 4.8 1.3 8.4 5.6 8.7 10.6.2 4.5-2.1 8.4-5.6 10.5-1.5.9-2.4 2.5-2.7 4.2-1.5 7.9-9.1 13.4-17.4 12-7.1-1.2-12.4-7.3-12.6-14.5-.1-4.4 1.6-8.3 4.4-11.1-4.4-2.4-7.3-7.2-6.9-12.5zM668.9 503.5s-5.5 3-5.1 7.5c0 0-2.7-2.1-3-9.1-.1-4.8 8.1 1.6 8.1 1.6z"/><path fill="#dba17b" d="M664.1 530.5c-.1 1.6-.5 3.3-1.4 5-.5.9-1.1 1.7-1.9 2.4-.8.7-1.7 1.2-2.5 1.5-1.8.7-3.5.8-5 .8-1.5-.1-2.9-.3-4.3-.6-2.7-.7-5.2-1.6-7.5-2.7-2.4-1.1-4.7-2.2-6.9-3.5-4.4-2.5-8.7-5.3-12.8-8.2-4.1-2.9-8.1-6-11.9-9.4-.4-.4-.4-1-.1-1.4.3-.4.9-.4 1.3-.1 2 1.4 4.1 2.8 6.2 4.1 2.1 1.3 4.2 2.6 6.3 3.8 4.3 2.5 8.6 4.8 13.1 6.8 4.4 2 9 3.8 13.4 4.6 1.1.2 2.2.3 3.1.2 1 0 1.8-.2 2.3-.5.5-.3.8-.5 1-1 .2-.5.4-1.3.4-2.2 0-1.9 1.6-3.5 3.6-3.4 1.9 0 3.5 1.6 3.4 3.6.2 0 .2.1.2.2z"/><path fill="#ffbe55" d="M660.3 553.5c-1.8-6.5-5.3-20.2-4.7-24.6.4-2.8 2.9-4.8 5.7-4.7l18.4 1c3 .2 5.4 2.7 5.3 5.8-.1 5.3-3.3 17.3-5 23.5l-19.7-1z"/><path fill="#0b4870" d="M659.5 678.7c-.3-.2-.4-.5-.4-.9 1.1-13.5 2.9-30.6 3.4-33.9.1-.4.1-.7.2-1.1-2-16.1-.6-50.4-.5-56.5.1-7.9 5.3-16.6 11.5-16.5 6.2 0 12.5 6.8 14 14.1 1 4.8-5.4 30-11.9 48.1-1.4 3.8-1.8 7.9-1.4 11.9.2 2.8.2 5.6-.1 7.8-.5 3.2-4.8 16.2-8.9 27.4-.1.3-.4.6-.7.6-1.8.4-3.7.1-5.2-1z"/><path fill="#ffbe55" d="M681.6 562.8c-.8-2.7-.9-5.6-.4-8.4 1.3-6.5 3.6-18.6 3.7-23.8.1-2.8-2.1-5.1-4.9-5.3l-2.7-.2c-1.2 2.3-3.5 4.1-6.9 3.9-3.4-.2-5.5-2.2-6.4-4.6l-2.6-.1c2.4 6.1 1 13.9-4 18.2.7 3.2 1.3 6.4 1.7 9 .6 3.5 0 7.1-1.5 10.3-2.7 5.5-5 14.4-4.7 18 19 6.5 32.9-2.4 32.9-2.4l-4.2-14.6z"/><path fill="#dba17b" d="m667.7 525.9 8.4-.4-2.1-9.2-5.5.3z"/><path fill="#c98e6d" d="m668.5 516.6 5.4-.4.7 2.9c-1.3 1.3-3 4.1-5 4-.6 0-1.2-.2-1.7-.6l.6-5.9z"/><path fill="#dba17b" d="M668.1 521c1.8.1 3.9-.7 6.7-2.9 1.6-1.3 2.9-3.6 3-5.2l.5-8.9-13.7-.8s-1.3 4.7-.5 9.4c.5 3.6 2.6 8.3 4 8.4z"/><path fill="#dba17b" d="M675.6 511.1c-.1 1.7.7 3.2 1.7 3.2 1 .1 2.3-2.2 2.4-3.9.1-1.7-1-2.3-2-2.4-1.1 0-2 1.3-2.1 3.1z"/><path fill="#0b4870" d="M680 505.1c.2-2.8-2-5.2-4.8-5.3l-4.6-.3c-1.3-.1-2.6-.5-3.7-1.2-1.6-1-3.7-.8-4.9.6-1.3 1.6-1.9 3.7 1 5.9 1.5 1.1 3.7.1 5.2.7h.3l4.1.2c1.4.1 2.4 1.3 2.4 2.7 0 .9.7 1.7 1.6 1.7h.2l.8-2.1 2.1 3.2.3-6.1z"/><path fill="#dba17b" d="M606.4 513.2s2.9 3.9 4.4 3.4c1.5-.5 2.4-1.1 1.7-3.3-.6-2.2-2.5-4.9-4-6.2-1.5-1.4-4.9-2.7-5.4-2.5-1.7.4 1.2 2.6 2.6 3.7 1.4 1.1 2.8 2.6 2 3.1-.7.5-3.2-1.9-4.2-1.6-.9.3 2.9 3.4 2.9 3.4zM650.5 565.7s4.8-.5 5.5.9c.6 1.4.8 2.5-1.2 3.5s-5.3 1.4-7.3 1.3c-2-.1-5.3-1.8-5.5-2.2-.8-1.5 2.8-.9 4.5-.6 1.8.2 3.8.3 3.6-.6-.1-.9-3.5-1-4-2-.5-.9 4.4-.3 4.4-.3z"/><path fill="#0b4870" d="M665.6 503.1c.3 2.1-.4 3.1 6.1 6.7 6.5 3.5 8.7 2.3 10.6 5.8 0 0-.6-5.7-4.2-7.9-3.6-2.1-9.9-3.8-11.7-8.4.1.1-1 2.4-.8 3.8z"/><path fill="#dba17b" d="M684.2 529.4c.9 1.4 1.7 2.7 2.4 4 .8 1.4 1.5 2.7 2.1 4.1 1.3 2.8 2.4 5.7 3.3 8.8.8 3.1 1.3 6.3 1.1 9.8-.1.9-.2 1.7-.4 2.6-.2.9-.4 1.7-.7 2.6l-.5 1.3c-.2.4-.5.8-.7 1.2-.2.4-.4.8-.7 1.1l-.9 1c-2.5 2.7-5.7 4.2-8.8 5l-1.2.3c-.4.1-.8.1-1.2.2-.8.1-1.6.2-2.3.3l-2.3.1-1.2.1H671c-6.1-.1-12.1-1.2-17.8-2.6-.5-.1-.9-.7-.7-1.2.1-.5.6-.8 1.1-.8 5.8.6 11.7 1 17.4.6l1.1-.1 1-.2 2.1-.3 2-.5c.3-.1.7-.1 1-.2l.9-.3c2.5-.9 4.7-2.2 6.1-4 1.4-1.8 2-4 2-6.5s-.6-5.1-1.4-7.7c-.8-2.6-1.9-5.2-3.2-7.6-.6-1.2-1.3-2.5-2-3.7-.7-1.2-1.5-2.5-2.2-3.5l-.1-.1c-1.1-1.6-.6-3.8 1-4.8 1.7-1 3.9-.5 4.9 1z"/><path fill="#0b4870" d="M666.9 503.6s-.6 6.8-6.8 9.8c0 0 2.9-5 2.9-8.4 0-3.5 4.4-3.8 3.9-1.4zM689.5 687.6c.4-.4.5-1.1.1-1.6-.3-.4-1.1-1.5-1.7-2.3-.3-.4-.8-.3-1 .1-2.4 4.3-6.1 7.6-10.8 8-1.6.9-2.6 3.2-2.4 4.1.1.2 2.1.4 4.3-.8 10.1-4.9 11.5-7.5 11.5-7.5z"/><path fill="#2a94f4" d="M787.6 674.1s74.4-67.8 148.8-17c0 0-36.5-46.7-89-39.7-52.4 7-59.8 56.7-59.8 56.7z" opacity=".4"/><path fill="#2a94f4" d="M789.9 676.9s9.7-100.2 98.9-112.4c0 0-58.4-10.1-92.6 30.2s-6.3 82.2-6.3 82.2z" opacity=".4"/><path fill="#0b4870" d="M789.3 676.4s34.9-94.4 124.3-83.6c0 0-53.9-24.7-97.3 5.7s-27 77.9-27 77.9z"/><path fill="#ffbe55" d="M757.2 676.2c0 10.5 8.5 19 19 19h29.3c10.5 0 19-8.5 19-19s-8.5-19-19-19h-29.3c-10.5 0-19 8.5-19 19z"/><path fill="#2a94f4" d="M270 674.1s-74.4-67.8-148.8-17c0 0 36.5-46.7 89-39.7s59.8 56.7 59.8 56.7z" opacity=".4"/><path fill="#2a94f4" d="M267.8 676.9s-9.7-100.2-98.9-112.4c0 0 58.4-10.1 92.6 30.2s6.3 82.2 6.3 82.2z" opacity=".4"/><path fill="#0b4870" d="M268.4 676.4s-34.9-94.4-124.3-83.6c0 0 53.9-24.7 97.3 5.7s27 77.9 27 77.9z"/><path fill="#ffbe55" d="M300.5 676.2c0 10.5-8.5 19-19 19h-29.3c-10.5 0-19-8.5-19-19s8.5-19 19-19h29.3c10.5 0 19 8.5 19 19z"/></svg>